Coordinates
version=1
nRows=32
nColumns=22
inDegrees=yes

Units are S.I. units (second, meters, Newtons, ...)
If the header above contains a line with 'inDegrees', this indicates whether rotational values are in degrees (yes) or radians (no).

endheader
time	pelvis_tilt	pelvis_list	pelvis_rotation	pelvis_tx	pelvis_ty	pelvis_tz	hip_flexion_r	hip_adduction_r	hip_rotation_r	knee_angle_r	ankle_angle_r	subtalar_angle_r	hip_flexion_l	hip_adduction_l	hip_rotation_l	knee_angle_l	ankle_angle_l	subtalar_angle_l	lumbar_extension	lumbar_bending	lumbar_rotation
      0.01000000	      2.99632342	      8.13749000	    183.19037876	      0.17005194	      0.97343787	      1.02786431	      5.12097284	      8.03997239	     -5.83594164	    -14.31002202	      9.63314784	     -0.60202944	      3.23764895	    -10.54881152	     -2.27826535	    -10.04776859	     12.79492021	      0.82749035	      3.25569375	      6.36203990	     -9.16334857
      0.02000000	      2.99912032	      8.13700711	    183.18721010	      0.17007054	      0.97343839	      1.02786333	      5.12244585	      8.03771482	     -5.83603604	    -14.30739550	      9.63301690	     -0.60172539	      3.23992331	    -10.54775336	     -2.27810612	    -10.04603837	     12.79463164	      0.82764354	      3.25026780	      6.36665261	     -9.16429222
      0.03000000	      3.00292154	      8.13634097	    183.18252032	      0.17009109	      0.97344104	      1.02785804	      5.12449566	      8.03530524	     -5.83572910	    -14.30355943	      9.63262428	     -0.60094009	      3.24300820	    -10.54673603	     -2.27795000	    -10.04415813	     12.79396107	      0.82782273	      3.24385792	      6.37165686	     -9.16546371
      0.04000000	      3.00816430	      8.13553588	    183.17697724	      0.17011576	      0.97344499	      1.02785510	      5.12733688	      8.03283355	     -5.83443865	    -14.29798381	      9.63170456	     -0.59937643	      3.24741380	    -10.54514353	     -2.27798019	    -10.04204571	     12.79253685	      0.82808103	      3.23685268	      6.37762468	     -9.16608471
      0.05000000	      3.03346401	      8.13682989	    183.16269866	      0.17014039	      0.97343610	      1.02783247	      5.14074592	      8.03474703	     -5.80190906	    -14.27296635	      9.61386145	     -0.57601113	      3.27290472	    -10.54629269	     -2.28397203	    -10.04173683	     12.77330798	      0.83033825	      3.25269446	      6.38331890	     -9.15249722
      0.06000000	      3.03896222	      8.13603114	    183.15945996	      0.17016689	      0.97344242	      1.02783688	      5.14470896	      8.03161122	     -5.80235368	    -14.26870134	      9.61420994	     -0.57500103	      3.27793417	    -10.54453609	     -2.28437732	    -10.03830095	     12.77359544	      0.83042277	      3.24317718	      6.38919846	     -9.15221184
      0.07000000	      3.07586904	      8.13401759	    183.14399719	      0.17019066	      0.97342106	      1.02781862	      5.17549127	      8.02834486	     -5.78392475	    -14.25236341	      9.60246843	     -0.54860984	      3.31378364	    -10.54033011	     -2.28859643	    -10.03513152	     12.76253263	      0.83286157	      3.26909706	      6.38932925	     -9.12374884
      0.08000000	      3.08208738	      8.13340305	    183.14269744	      0.17020917	      0.97342879	      1.02783096	      5.18062107	      8.02557031	     -5.78373431	    -14.24874028	      9.60281855	     -0.54765365	      3.31916817	    -10.53797180	     -2.28950812	    -10.03141766	     12.76243864	      0.83302653	      3.25938210	      6.39452146	     -9.12414406
      0.09000000	      3.13504422	      8.12719113	    183.13007588	      0.17022174	      0.97339352	      1.02783062	      5.22981212	      8.01522793	     -5.76849970	    -14.23633832	      9.58805383	     -0.52317890	      3.36757846	    -10.52669555	     -2.29387508	    -10.01859877	     12.74059720	      0.83851556	      3.30561205	      6.38798055	     -9.10320810
      0.10000000	      3.14165567	      8.12741098	    183.12990919	      0.17023612	      0.97340093	      1.02783238	      5.23627869	      8.01456614	     -5.76840875	    -14.23389402	      9.58867830	     -0.52237563	      3.37353560	    -10.52638910	     -2.29460897	    -10.01500379	     12.74079974	      0.83866067	      3.29461397	      6.38807621	     -9.10351376
      0.11000000	      3.22550773	      8.11801715	    183.11803902	      0.17031669	      0.97331787	      1.02782660	      5.34857065	      7.99726810	     -5.75506419	    -14.26937059	      9.59091257	     -0.48794607	      3.47728515	    -10.51064972	     -2.29063964	    -10.03341613	     12.72108623	      0.84857173	      3.36603420	      6.37157935	     -9.09400378
      0.12000000	      3.26389477	      8.11885761	    183.12139229	      0.17032339	      0.97329047	      1.02783944	      5.39030574	      7.99353271	     -5.76889029	    -14.26908459	      9.58357622	     -0.47221833	      3.51605580	    -10.50811585	     -2.28585659	    -10.02473000	     12.71787092	      0.85459984	      3.39458762	      6.36756335	     -9.10091866
      0.13000000	      3.28661740	      8.11762619	    183.12064934	      0.17031293	      0.97328541	      1.02784444	      5.40877025	      7.99023011	     -5.77355570	    -14.25983187	      9.58211165	     -0.46855120	      3.53288135	    -10.50497521	     -2.29146355	    -10.01193258	     12.71185892	      0.85711954	      3.40444181	      6.36068472	     -9.10011954
      0.14000000	      3.29406838	      8.11882171	    183.12182800	      0.17031078	      0.97329642	      1.02785340	      5.41496093	      7.99069848	     -5.77353141	    -14.25677403	      9.58143086	     -0.46816216	      3.53808636	    -10.50534998	     -2.29251524	    -10.00659432	     12.71139025	      0.85737585	      3.39292475	      6.35745423	     -9.10050031
      0.15000000	      3.35590941	      8.10895265	    183.11676511	      0.17033350	      0.97325177	      1.02785919	      5.49055990	      7.97480590	     -5.77158588	    -14.27279394	      9.56160125	     -0.45542157	      3.60240435	    -10.48937875	     -2.28184999	    -10.00088337	     12.67686595	      0.86942926	      3.44155186	      6.33777756	     -9.09858443
      0.16000000	      3.36347102	      8.11040041	    183.11590891	      0.17032063	      0.97326420	      1.02786863	      5.49615256	      7.97558115	     -5.77219688	    -14.26990335	      9.56162320	     -0.45511711	      3.60692732	    -10.48983209	     -2.28322812	     -9.99641857	     12.67793782	      0.86945160	      3.42916650	      6.33489258	     -9.10114656
      0.17000000	      3.37139768	      8.11178533	    183.11468082	      0.17030266	      0.97327494	      1.02787938	      5.50226472	      7.97610272	     -5.77253632	    -14.26782899	      9.56032570	     -0.45460822	      3.61176730	    -10.49014928	     -2.28434632	     -9.99215220	     12.67813695	      0.86964080	      3.41776092	      6.33144638	     -9.10415390
      0.18000000	      3.37949311	      8.11315654	    183.11228933	      0.17028354	      0.97328462	      1.02789156	      5.50895209	      7.97638233	     -5.77266944	    -14.26655284	      9.55776498	     -0.45391028	      3.61703536	    -10.49024024	     -2.28485656	     -9.98878950	     12.67754922	      0.86997714	      3.40697058	      6.32755183	     -9.10765764
      0.19000000	      3.44954895	      8.10495860	    183.10826908	      0.17032615	      0.97322525	      1.02791037	      5.60206807	      7.95947286	     -5.77832555	    -14.29476293	      9.51727225	     -0.43727823	      3.70992211	    -10.47527388	     -2.27352028	    -10.01518753	     12.65366876	      0.88137880	      3.46357654	      6.30842871	     -9.12216092
      0.20000000	      3.45510242	      8.10780570	    183.10382359	      0.17030446	      0.97323605	      1.02792968	      5.60572740	      7.96087708	     -5.77871327	    -14.29356883	      9.51856785	     -0.43720185	      3.71341479	    -10.47629865	     -2.27250327	    -10.01426705	     12.65475034	      0.88139338	      3.45282301	      6.30473839	     -9.12449293
      0.21000000	      3.45879743	      8.11193158	    183.09814183	      0.17031573	      0.97324169	      1.02794992	      5.62128207	      7.96312778	     -5.76971954	    -14.31356264	      9.51761103	     -0.43548641	      3.72826183	    -10.47893505	     -2.26479013	    -10.03572111	     12.66005596	      0.88157913	      3.43755374	      6.30162830	     -9.13184069
      0.22000000	      3.46343401	      8.11555534	    183.09374546	      0.17029250	      0.97324847	      1.02797416	      5.62400361	      7.96524254	     -5.77122663	    -14.31192919	      9.51736161	     -0.43513096	      3.73173471	    -10.48056751	     -2.26435383	    -10.03628441	     12.66070283	      0.88153679	      3.43058511	      6.29445830	     -9.13225248
      0.23000000	      3.46905128	      8.11871304	    183.08671472	      0.17031494	      0.97325213	      1.02799780	      5.64139754	      7.96558454	     -5.76860983	    -14.32901578	      9.50385246	     -0.43069763	      3.75812172	    -10.48227440	     -2.26213063	    -10.07367244	     12.66610224	      0.88085729	      3.42179846	      6.28477842	     -9.12021537
      0.24000000	      3.47173014	      8.12354347	    183.08188766	      0.17030052	      0.97326067	      1.02802864	      5.64377854	      7.96894533	     -5.76975912	    -14.32841792	      9.50368275	     -0.43028830	      3.76023264	    -10.48447611	     -2.26221995	    -10.07479221	     12.66693354	      0.88074329	      3.41872430	      6.27484401	     -9.12074754
      0.25000000	      3.47276886	      8.12855985	    183.07639377	      0.17028930	      0.97326972	      1.02805631	      5.64566626	      7.97233633	     -5.77037257	    -14.32995497	      9.50246119	     -0.42967643	      3.76222306	    -10.48798622	     -2.26170800	    -10.07932236	     12.66772839	      0.88053680	      3.41704251	      6.26272578	     -9.11954235
      0.26000000	      3.47315862	      8.13161733	    183.06605316	      0.17033431	      0.97327695	      1.02809141	      5.66099650	      7.97213371	     -5.76377054	    -14.35111250	      9.48804116	     -0.42446374	      3.78722133	    -10.48912468	     -2.26690819	    -10.12331816	     12.67638106	      0.87846531	      3.40852985	      6.25018932	     -9.08833332
      0.27000000	      3.47322152	      8.13698977	    183.05983455	      0.17032701	      0.97328798	      1.02812435	      5.66177427	      7.97572876	     -5.76433840	    -14.35194162	      9.48787751	     -0.42394667	      3.78714833	    -10.49246641	     -2.26766593	    -10.12614002	     12.67738183	      0.87824695	      3.41097339	      6.23804547	     -9.08869587
      0.28000000	      3.47212474	      8.14212585	    183.05329866	      0.17032090	      0.97329804	      1.02816023	      5.66157630	      7.97866790	     -5.76439398	    -14.35393220	      9.48697826	     -0.42329304	      3.78718457	    -10.49571520	     -2.26825541	    -10.13128746	     12.67841517	      0.87794804	      3.41394586	      6.22638969	     -9.08737829
      0.29000000	      3.47013780	      8.14697297	    183.04529611	      0.17031611	      0.97330734	      1.02819509	      5.66068204	      7.98150660	     -5.76410215	    -14.35641297	      9.48549648	     -0.42249481	      3.78703325	    -10.49871225	     -2.26880316	    -10.13869724	     12.67963507	      0.87754784	      3.41709831	      6.21520910	     -9.08528600
      0.30000000	      3.47486014	      8.15346563	    183.00962213	      0.17034878	      0.97330324	      1.02820408	      5.67395939	      7.98757330	     -5.72769601	    -14.36894329	      9.47473759	     -0.40872425	      3.81167165	    -10.50650645	     -2.32801627	    -10.18548306	     12.71170015	      0.87120944	      3.41979076	      6.21077090	     -9.04646195
      0.31000000	      3.47187008	      8.15856524	    183.00024142	      0.17033874	      0.97330966	      1.02823915	      5.67100002	      7.99062133	     -5.72793462	    -14.37117162	      9.47435682	     -0.40825888	      3.80869818	    -10.50949357	     -2.32562024	    -10.19087454	     12.71104231	      0.87130745	      3.42589295	      6.20110753	     -9.04830290
      0.32000000	      3.46239962	      8.16885966	    182.98214744	      0.17034892	      0.97332071	      1.02826611	      5.66249177	      8.00097450	     -5.70767824	    -14.37391198	      9.46910877	     -0.40275276	      3.80704039	    -10.51939644	     -2.33650316	    -10.21313753	     12.71749692	      0.86983343	      3.42076162	      6.20024138	     -9.05414547
